<svg width="118" height="17" viewBox="0 0 118 17" fill="none" xmlns="http://www.w3.org/2000/svg">
<path d="M0 8.51113C0 6.96824 0.333797 5.59597 1.00139 4.3943C1.66898 3.17779 2.5962 2.23574 3.78303 1.56815C4.9847 0.88572 6.34214 0.544506 7.85535 0.544506C9.70978 0.544506 11.2972 1.03407 12.6175 2.01321C13.9379 2.99235 14.8206 4.32754 15.2656 6.01878H11.0821C10.7705 5.36602 10.3255 4.86903 9.74687 4.52782C9.18312 4.1866 8.53778 4.01599 7.81085 4.01599C6.63885 4.01599 5.68938 4.42397 4.96245 5.23992C4.23551 6.05586 3.87204 7.14627 3.87204 8.51113C3.87204 9.87598 4.23551 10.9664 4.96245 11.7823C5.68938 12.5983 6.63885 13.0063 7.81085 13.0063C8.53778 13.0063 9.18312 12.8357 9.74687 12.4944C10.3255 12.1532 10.7705 11.6562 11.0821 11.0035H15.2656C14.8206 12.6947 13.9379 14.0299 12.6175 15.009C11.2972 15.9733 9.70978 16.4555 7.85535 16.4555C6.34214 16.4555 4.9847 16.1217 3.78303 15.4541C2.5962 14.7717 1.66898 13.8296 1.00139 12.628C0.333797 11.4263 0 10.054 0 8.51113Z" fill="black"/>
<path d="M24.984 16.5C23.5153 16.5 22.1653 16.1588 20.9339 15.4764C19.7174 14.7939 18.7457 13.8445 18.0188 12.628C17.3067 11.3966 16.9506 10.0169 16.9506 8.48887C16.9506 6.96082 17.3067 5.58855 18.0188 4.37204C18.7457 3.15554 19.7174 2.20607 20.9339 1.52364C22.1653 0.841215 23.5153 0.5 24.984 0.5C26.4527 0.5 27.7953 0.841215 29.0118 1.52364C30.2432 2.20607 31.2075 3.15554 31.9047 4.37204C32.6168 5.58855 32.9729 6.96082 32.9729 8.48887C32.9729 10.0169 32.6168 11.3966 31.9047 12.628C31.1926 13.8445 30.2283 14.7939 29.0118 15.4764C27.7953 16.1588 26.4527 16.5 24.984 16.5ZM24.984 13.0285C26.2302 13.0285 27.2242 12.6131 27.9659 11.7823C28.7225 10.9516 29.1008 9.85373 29.1008 8.48887C29.1008 7.10918 28.7225 6.01136 27.9659 5.19541C27.2242 4.36463 26.2302 3.94923 24.984 3.94923C23.723 3.94923 22.7142 4.35721 21.9576 5.17316C21.2158 5.9891 20.8449 7.09434 20.8449 8.48887C20.8449 9.86857 21.2158 10.9738 21.9576 11.8046C22.7142 12.6205 23.723 13.0285 24.984 13.0285Z" fill="black"/>
<path d="M56.5864 0.722531L52.5141 16.3442H47.9077L45.4153 6.06328L42.834 16.3442H38.2276L34.2665 0.722531H38.3388L40.5864 12.0939L43.368 0.722531H47.5516L50.222 12.0939L52.4918 0.722531H56.5864Z" fill="black"/>
<path d="M65.8828 16.5C64.4141 16.5 63.0641 16.1588 61.8327 15.4764C60.6162 14.7939 59.6445 13.8445 58.9176 12.628C58.2055 11.3966 57.8494 10.0169 57.8494 8.48887C57.8494 6.96082 58.2055 5.58855 58.9176 4.37204C59.6445 3.15554 60.6162 2.20607 61.8327 1.52364C63.0641 0.841215 64.4141 0.5 65.8828 0.5C67.3515 0.5 68.6941 0.841215 69.9106 1.52364C71.142 2.20607 72.1063 3.15554 72.8035 4.37204C73.5156 5.58855 73.8717 6.96082 73.8717 8.48887C73.8717 10.0169 73.5156 11.3966 72.8035 12.628C72.0914 13.8445 71.1271 14.7939 69.9106 15.4764C68.6941 16.1588 67.3515 16.5 65.8828 16.5ZM65.8828 13.0285C67.129 13.0285 68.123 12.6131 68.8647 11.7823C69.6213 10.9516 69.9996 9.85373 69.9996 8.48887C69.9996 7.10918 69.6213 6.01136 68.8647 5.19541C68.123 4.36463 67.129 3.94923 65.8828 3.94923C64.6218 3.94923 63.613 4.35721 62.8564 5.17316C62.1146 5.9891 61.7437 7.09434 61.7437 8.48887C61.7437 9.86857 62.1146 10.9738 62.8564 11.8046C63.613 12.6205 64.6218 13.0285 65.8828 13.0285Z" fill="black"/>
<path d="M83.9553 16.3442L80.7064 10.4471H79.794V16.3442H75.9887V0.722531H82.3753C83.6067 0.722531 84.6526 0.937645 85.513 1.36787C86.3883 1.7981 87.0411 2.39152 87.4713 3.14812C87.9015 3.88989 88.1167 4.72068 88.1167 5.64047C88.1167 6.67895 87.8199 7.60617 87.2265 8.42211C86.6479 9.23806 85.7875 9.81664 84.6452 10.1579L88.2502 16.3442H83.9553ZM79.794 7.75452H82.1528C82.8501 7.75452 83.3693 7.58391 83.7105 7.2427C84.0666 6.90148 84.2446 6.41933 84.2446 5.79624C84.2446 5.20283 84.0666 4.73551 83.7105 4.3943C83.3693 4.05308 82.8501 3.88248 82.1528 3.88248H79.794V7.75452Z" fill="black"/>
<path d="M99.5624 16.3442L94.3107 9.44576V16.3442H90.5054V0.722531H94.3107V7.57649L99.5179 0.722531H103.991L97.9379 8.37761L104.213 16.3442H99.5624Z" fill="black"/>
<path d="M111.674 16.5C110.532 16.5 109.508 16.3146 108.603 15.9437C107.698 15.5728 106.971 15.0239 106.422 14.2969C105.888 13.57 105.606 12.6947 105.577 11.6711H109.627C109.686 12.2497 109.886 12.6947 110.228 13.0063C110.569 13.303 111.014 13.4513 111.563 13.4513C112.126 13.4513 112.572 13.3252 112.898 13.073C113.224 12.806 113.388 12.4425 113.388 11.9826C113.388 11.5969 113.254 11.2779 112.987 11.0257C112.735 10.7735 112.416 10.5658 112.03 10.4026C111.659 10.2395 111.125 10.054 110.428 9.84631C109.419 9.53477 108.596 9.22323 107.958 8.91168C107.32 8.60014 106.771 8.14024 106.311 7.53199C105.851 6.92374 105.621 6.13004 105.621 5.1509C105.621 3.69703 106.148 2.56212 107.201 1.74618C108.254 0.915392 109.627 0.5 111.318 0.5C113.039 0.5 114.426 0.915392 115.479 1.74618C116.533 2.56212 117.096 3.70445 117.171 5.17316H113.054C113.024 4.66875 112.839 4.27561 112.497 3.99374C112.156 3.69703 111.719 3.54868 111.184 3.54868C110.725 3.54868 110.354 3.67478 110.072 3.92698C109.79 4.16435 109.649 4.51298 109.649 4.97288C109.649 5.47728 109.886 5.87042 110.361 6.15229C110.836 6.43417 111.578 6.73829 112.586 7.06467C113.595 7.40589 114.411 7.73227 115.034 8.04381C115.672 8.35535 116.221 8.80783 116.681 9.40125C117.141 9.99467 117.371 10.7587 117.371 11.6933C117.371 12.5834 117.141 13.392 116.681 14.1189C116.236 14.8458 115.583 15.4244 114.723 15.8547C113.862 16.2849 112.846 16.5 111.674 16.5Z" fill="black"/>
</svg>
